<svg id="Layer_1" data-name="Layer 1" xmlns="http://www.w3.org/2000/svg" viewBox="0 0 375 375"><defs><style>.cls-1{fill:#0cf;}.cls-2{fill:#05b3df;}.cls-3{fill:#913bff;}</style></defs><path d="M57.54,175.4l10.31,10.3L59.1,169.56l-7.31,7.37,5.75-1.53Zm11.64,26.2-10.3-10.31,8.74,16.15,7.31-7.37-5.75,1.53m-18.92-7.28,6.61-14L46.75,190.43l-2.33,2.33,7.38,7.31-1.54-5.75m26.21-11.65L66.16,193l16.14-8.74-7.37-7.31,1.54,5.74"/><path class="cls-1" d="M71.55,182,61.43,171.89l-2.33-2.33,8.75,16.14,3.7-3.7ZM55.18,195l12.44,12.45-8.74-16.15-3.7,3.7m5.39-11-3.7-3.7-6.61,14L60.57,184m9.29,12.67L82.3,184.24,66.16,193l3.7,3.7"/><path class="cls-1" d="M47.53,172.66l-3.11,11.58,6.33-3.4ZM79.2,204.34l3.1-11.58L76,196.15l3.22,8.19m-31.67,0,11.57,3.1-3.39-6.33ZM79.2,172.66l-11.58-3.1L71,175.88l8.19-3.22Z"/><path class="cls-2" d="M51.79,176.93l7.31-7.37-11.57,3.1,3.22,8.18,1-3.91Zm23.14,23.14-7.31,7.37,11.58-3.1L76,196.15l-1,3.92m-23.13,0-7.38-7.31,3.11,11.58,8.18-3.23-3.91-1Zm23.13-23.14,7.37,7.31-3.1-11.58L71,175.88l3.92,1.05"/><path class="cls-1" d="M50.75,180.84l-6.33,3.4,1.47,1.46,4.86-4.86ZM76,196.15l6.32-3.39-1.47-1.47L76,196.15M59.1,207.44,60.57,206l-4.86-4.86,3.39,6.33m8.52-37.88L66.16,171,71,175.88Z"/><path d="M247.1,196.25h66.14a8.54,8.54,0,0,0,8.51-8.51,8.29,8.29,0,0,0-.46-2.74,8.39,8.39,0,0,1,1.46,4.74,8.49,8.49,0,0,1-2.5,6,8.85,8.85,0,0,1-6.53,2.5h-69.1A5.5,5.5,0,0,0,247.1,196.25Z"/><path class="cls-3" d="M90.18,179.21H97.8a8.91,8.91,0,0,1,9.55,9.4,9,9,0,0,1-2.6,6.85Q102.14,198,97.32,198H90.18Zm4.3,3.43v11.88h2.81a5.27,5.27,0,0,0,4.18-1.63,7.17,7.17,0,0,0,0-8.66,5.47,5.47,0,0,0-4.22-1.59Z"/><path class="cls-3" d="M122.55,194.83V197a6.51,6.51,0,0,1-3.44,1.15,1.81,1.81,0,0,1-2-1.42,6.44,6.44,0,0,1-3.85,1.42,3.21,3.21,0,0,1-2.32-.93,3,3,0,0,1-1-2.17,3.71,3.71,0,0,1,1-2.67q1-1,6-2.61c.08-1.41-.59-2.12-2-2.12a5.81,5.81,0,0,0-4.3,2.12v-3.25a8.87,8.87,0,0,1,5.06-1.54q5,0,5,3.85v5.78c0,.59.2.89.6.89A2.82,2.82,0,0,0,122.55,194.83Zm-5.67,0v-3.07a9.49,9.49,0,0,0-2.53,1.26,1.74,1.74,0,0,0-.69,1.42,1.41,1.41,0,0,0,.35.95,1.08,1.08,0,0,0,.84.39A2.94,2.94,0,0,0,116.88,194.88Z"/><path class="cls-3" d="M133,185.29V188h-4.26v5.22a2.14,2.14,0,0,0,.48,1.48,1.65,1.65,0,0,0,1.32.55,5.11,5.11,0,0,0,2.46-.74v2.88a8.23,8.23,0,0,1-3.4.79,4.52,4.52,0,0,1-3.35-1.2,4.88,4.88,0,0,1-1.18-3.55V188h-1.67v-.78l4.88-5.93h.46v4Z"/><path class="cls-3" d="M147.3,194.83V197a6.51,6.51,0,0,1-3.44,1.15,1.81,1.81,0,0,1-2.05-1.42,6.44,6.44,0,0,1-3.85,1.42,3.21,3.21,0,0,1-2.32-.93,3,3,0,0,1-.95-2.17,3.71,3.71,0,0,1,1-2.67q1-1,6-2.61c.08-1.41-.59-2.12-2-2.12a5.81,5.81,0,0,0-4.3,2.12v-3.25a8.87,8.87,0,0,1,5.06-1.54q4.95,0,4.95,3.85v5.78c0,.59.2.89.6.89A2.82,2.82,0,0,0,147.3,194.83Zm-5.67,0v-3.07a9.49,9.49,0,0,0-2.53,1.26,1.74,1.74,0,0,0-.69,1.42,1.41,1.41,0,0,0,.35.95,1.08,1.08,0,0,0,.84.39A2.94,2.94,0,0,0,141.63,194.88Z"/><path class="cls-3" d="M164.38,186.16l5.56-6.95h3.74V198h-4.31v-11.7l-4.67,5.88h-.64l-4.67-5.88V198h-4.31V179.21h3.74Z"/><path class="cls-3" d="M177.48,181.17a2.24,2.24,0,0,1,.59-1.56,1.92,1.92,0,0,1,2.86,0,2.32,2.32,0,0,1,0,3.11,1.9,1.9,0,0,1-2.86,0A2.25,2.25,0,0,1,177.48,181.17Zm3.87,4.12V198h-3.67V185.29Z"/><path class="cls-3" d="M188.66,185.29v1.8a4.72,4.72,0,0,1,3.79-2.07,4,4,0,0,1,3,1.26,5,5,0,0,1,1.22,3.61V198H193v-7.72c0-1.69-.61-2.54-1.82-2.54-.87,0-1.72.7-2.56,2.09V198H185V185.29Z"/><path class="cls-3" d="M212,179.21V198h-3.68v-1a4.72,4.72,0,0,1-3.24,1.26,4.85,4.85,0,0,1-3.9-1.88,7.86,7.86,0,0,1,0-9.45A5.14,5.14,0,0,1,205.3,185a6.4,6.4,0,0,1,3,.8v-6.61Zm-3.68,15.27v-6a3.42,3.42,0,0,0-2.05-.74,2.54,2.54,0,0,0-2.16,1.05,4.8,4.8,0,0,0-.77,2.93,4.65,4.65,0,0,0,.76,2.8,2.43,2.43,0,0,0,2,1.05A3.06,3.06,0,0,0,208.34,194.48Z"/><path class="cls-3" d="M223.58,186v2.83a7.18,7.18,0,0,0-3.9-1.4c-.88,0-1.32.33-1.32,1a.72.72,0,0,0,.27.51,13.73,13.73,0,0,0,2.14,1.05,6.23,6.23,0,0,1,2.62,1.84,4.12,4.12,0,0,1-.47,5.35,5.19,5.19,0,0,1-3.53,1.07,9.12,9.12,0,0,1-4.18-.92v-2.81a9.16,9.16,0,0,0,3.78,1.08c1.18,0,1.78-.31,1.78-.94a.94.94,0,0,0-.33-.68,9.75,9.75,0,0,0-2.21-1.12,6,6,0,0,1-2.57-1.75,3.55,3.55,0,0,1-.7-2.12,3.48,3.48,0,0,1,1.33-2.82A5.36,5.36,0,0,1,219.8,185,7.57,7.57,0,0,1,223.58,186Z"/><path d="M226.56,195.81a2.42,2.42,0,0,1,.65-1.69,2,2,0,0,1,1.55-.7,2.07,2.07,0,0,1,1.57.7,2.52,2.52,0,0,1,0,3.38,2.09,2.09,0,0,1-1.57.69,2.05,2.05,0,0,1-1.55-.69A2.42,2.42,0,0,1,226.56,195.81Z"/><path d="M246.38,180.42v3.66a13.53,13.53,0,0,0-5.48-1.68,3.45,3.45,0,0,0-1.85.43,1.25,1.25,0,0,0-.68,1.12,1.44,1.44,0,0,0,.49,1,8.66,8.66,0,0,0,2.41,1.24,24.22,24.22,0,0,1,3.07,1.43,6,6,0,0,1,2,1.85,5.73,5.73,0,0,1-1,7.16,7.2,7.2,0,0,1-4.81,1.54,12,12,0,0,1-6.24-1.81v-4a16,16,0,0,0,3.07,1.84,7,7,0,0,0,2.84.58c1.69,0,2.53-.58,2.53-1.73a1.61,1.61,0,0,0-.5-1.11,7.85,7.85,0,0,0-2.45-1.28,24.16,24.16,0,0,1-3.07-1.39,6,6,0,0,1-2-1.84,5.29,5.29,0,0,1-.83-3.06,4.81,4.81,0,0,1,1.8-3.9,7.3,7.3,0,0,1,4.8-1.48A13.68,13.68,0,0,1,246.38,180.42Z"/><path d="M258.88,190.81v2a6.5,6.5,0,0,1-4.17,1.34,5.4,5.4,0,0,1-3.94-1.44,5,5,0,0,1-1.48-3.8,5.38,5.38,0,0,1,1.39-3.82,4.62,4.62,0,0,1,3.54-1.49,4.49,4.49,0,0,1,3.54,1.57,5.86,5.86,0,0,1,1.29,4.22h-6.72a3,3,0,0,0,.9,2.12,3.1,3.1,0,0,0,2.18.75A5.68,5.68,0,0,0,258.88,190.81Zm-6.49-3.1h4.06c-.15-1.47-.83-2.21-2-2.21S252.54,186.24,252.39,187.71Z"/><path d="M264.38,183.81v2.9h0c.85-2.07,1.85-3.11,3-3.11a3.36,3.36,0,0,1,2,.92l-.81,2.83a3.46,3.46,0,0,0-1.74-.76c-.68,0-1.26.46-1.72,1.38a7,7,0,0,0-.7,1.59V194h-2.94V183.81Z"/><path d="M274.61,194.15l-4.32-10.34h3.15l2,5.59,2-5.59h3.12l-4.31,10.34Z"/><path d="M282.12,180.51a1.75,1.75,0,0,1,.47-1.24,1.52,1.52,0,0,1,2.29,0,1.75,1.75,0,0,1,.48,1.24,1.8,1.8,0,0,1-.48,1.25,1.52,1.52,0,0,1-2.29,0A1.79,1.79,0,0,1,282.12,180.51Zm3.1,3.3V194h-3V183.81Z"/><path d="M296.29,191.18v2.29a8.75,8.75,0,0,1-3.16.68,5.4,5.4,0,0,1-3.94-1.44,5.08,5.08,0,0,1-1.48-3.8A5.12,5.12,0,0,1,293,183.6a8.57,8.57,0,0,1,3.16.66v2.38a5,5,0,0,0-2.4-.68,2.85,2.85,0,0,0-2.11.8,2.88,2.88,0,0,0-.8,2.13,3,3,0,0,0,.78,2.17,2.64,2.64,0,0,0,2,.82A7.49,7.49,0,0,0,296.29,191.18Z"/><path d="M307.8,190.81v2a6.53,6.53,0,0,1-4.17,1.34,5.42,5.42,0,0,1-3.95-1.44,5.07,5.07,0,0,1-1.47-3.8,5.42,5.42,0,0,1,1.38-3.82,4.65,4.65,0,0,1,3.54-1.49,4.49,4.49,0,0,1,3.54,1.57,5.87,5.87,0,0,1,1.3,4.22h-6.72a3,3,0,0,0,.9,2.12,3.09,3.09,0,0,0,2.18.75A5.7,5.7,0,0,0,307.8,190.81Zm-6.49-3.1h4.06c-.16-1.47-.84-2.21-2-2.21S301.45,186.24,301.31,187.71Z"/><path d="M316.7,184.35v2.27a5.7,5.7,0,0,0-3.12-1.12c-.7,0-1.06.26-1.06.78a.58.58,0,0,0,.23.41,10.54,10.54,0,0,0,1.71.84,4.93,4.93,0,0,1,2.1,1.48,3,3,0,0,1,.61,1.84,3.07,3.07,0,0,1-1,2.44,4.19,4.19,0,0,1-2.82.86,7.34,7.34,0,0,1-3.35-.74v-2.25a7.41,7.41,0,0,0,3,.86c1,0,1.43-.25,1.43-.75a.76.76,0,0,0-.27-.55,7.63,7.63,0,0,0-1.77-.89,4.9,4.9,0,0,1-2.06-1.4,2.83,2.83,0,0,1-.55-1.7,2.77,2.77,0,0,1,1.06-2.26,4.31,4.31,0,0,1,2.81-.87A6.07,6.07,0,0,1,316.7,184.35Z"/></svg>